<svg width="56" height="56" viewBox="0 0 56 56" fill="none" xmlns="http://www.w3.org/2000/svg">
<rect width="56" height="56" rx="28" fill="#F2F4F7"/>
<g opacity="0.08">
<rect x="0.375" y="0.375" width="55.25" height="55.25" rx="27.625" stroke="#101828" stroke-width="0.75"/>
</g>
<path d="M38.6668 40C38.6668 38.1392 38.6668 37.2089 38.4372 36.4518C37.9201 34.7473 36.5862 33.4134 34.8817 32.8963C34.1246 32.6667 33.1942 32.6667 31.3335 32.6667H24.6668C22.8061 32.6667 21.8757 32.6667 21.1186 32.8963C19.4141 33.4134 18.0802 34.7473 17.5631 36.4518C17.3335 37.2089 17.3335 38.1392 17.3335 40M34.0002 22C34.0002 25.3137 31.3139 28 28.0002 28C24.6865 28 22.0002 25.3137 22.0002 22C22.0002 18.6863 24.6865 16 28.0002 16C31.3139 16 34.0002 18.6863 34.0002 22Z" stroke="#475467" stroke-width="2.66667" stroke-linecap="round" stroke-linejoin="round"/>
</svg>
