<svg width="16" height="16" viewBox="0 0 16 16" fill="none" xmlns="http://www.w3.org/2000/svg">
<path d="M10.6666 5.33334L1.33325 14.6667M11.9999 10H5.99992M4.39992 12.6667H8.89142C9.05448 12.6667 9.13602 12.6667 9.21274 12.6483C9.28076 12.6319 9.34579 12.605 9.40544 12.5684C9.47272 12.5272 9.53037 12.4696 9.64567 12.3543L12.9999 9.00001C13.1592 8.8407 13.2389 8.76104 13.303 8.69052C14.6898 7.16489 14.6898 4.83512 13.303 3.30949C13.2389 3.23897 13.1592 3.15931 12.9999 3.00001C12.8406 2.8407 12.761 2.76104 12.6904 2.69694C11.1648 1.31017 8.83504 1.31017 7.3094 2.69694C7.23888 2.76104 7.15923 2.8407 6.99992 3L3.64567 6.35425C3.53037 6.46955 3.47272 6.5272 3.43149 6.59448C3.39494 6.65413 3.368 6.71916 3.35167 6.78718C3.33325 6.86391 3.33325 6.94544 3.33325 7.1085V11.6C3.33325 11.9734 3.33325 12.1601 3.40591 12.3027C3.46983 12.4281 3.57182 12.5301 3.69726 12.594C3.83987 12.6667 4.02655 12.6667 4.39992 12.6667Z" stroke="#667085" stroke-width="1.5" stroke-linecap="round" stroke-linejoin="round"/>
</svg>
