<svg width="24" height="24" viewBox="0 0 24 24" fill="none" xmlns="http://www.w3.org/2000/svg">
<path d="M12 17.3333H18M6 17.3333H7.11636C7.44248 17.3333 7.60554 17.3333 7.75899 17.2964C7.89504 17.2638 8.0251 17.2099 8.1444 17.1368C8.27895 17.0543 8.39425 16.939 8.62486 16.7084L17 8.33328C17.5523 7.781 17.5523 6.88557 17 6.33328C16.4477 5.781 15.5523 5.781 15 6.33328L6.62484 14.7084C6.39424 14.939 6.27894 15.0543 6.19648 15.1889C6.12338 15.3082 6.0695 15.4383 6.03684 15.5743C6 15.7278 6 15.8908 6 16.2169V17.3333Z" stroke="#4E1D09" stroke-width="1.5" stroke-linecap="round" stroke-linejoin="round"/>
</svg>
