<svg width="16" height="16" viewBox="0 0 16 16" fill="none" xmlns="http://www.w3.org/2000/svg">
<path fill-rule="evenodd" clip-rule="evenodd" d="M13.4111 0.00159441C13.602 0.0109794 13.7585 0.0391344 13.8962 0.0891878C14.0089 0.129856 14.1716 0.204936 14.2561 0.25499C14.3438 0.305043 14.4909 0.42392 14.5879 0.51777C14.6818 0.614748 14.8132 0.783679 14.8727 0.896299C14.9353 1.00892 15.0104 1.18411 15.0417 1.28734C15.0793 1.4156 15.098 1.57202 15.0949 1.78787C15.0949 2.04127 15.0793 2.14451 15.0104 2.33533C14.9666 2.4636 14.8821 2.64191 14.8226 2.72638C14.7663 2.81397 14.6599 2.94223 14.5879 3.01731C14.519 3.08926 14.3845 3.19875 14.2968 3.25819C14.2061 3.31763 14.0339 3.4021 13.9119 3.44276C13.7898 3.48656 13.5864 3.53036 13.458 3.53974C13.2953 3.55538 13.1513 3.546 12.9886 3.51159C12.8603 3.48343 12.6474 3.41148 12.5191 3.34579C12.3564 3.26445 12.2218 3.16747 12.0747 3.01731C11.9182 2.86089 11.8306 2.73889 11.7398 2.54806C11.6709 2.40416 11.6021 2.20394 11.5833 2.10071C11.5645 1.99747 11.5489 1.8348 11.5489 1.74095C11.5489 1.6471 11.5708 1.4813 11.5958 1.37493C11.6209 1.26544 11.6897 1.084 11.7429 0.96825C11.8149 0.81809 11.9151 0.683572 12.0809 0.520898C12.2468 0.351968 12.3783 0.25499 12.5348 0.17991C12.6568 0.1236 12.8383 0.0547761 12.9416 0.0328778C13.0574 0.00785108 13.239 -0.00466226 13.4111 0.00159441ZM9.32047 0.427048C9.33299 0.427048 9.68666 0.499 10.1092 0.586593C10.5317 0.674187 10.8791 0.749267 10.8854 0.752395C10.8916 0.752395 10.8541 0.94948 10.8071 1.19036C10.7602 1.42812 10.7101 1.63771 10.6976 1.65961C10.6819 1.68464 10.4503 1.6471 9.89948 1.52822C9.47383 1.4375 9.12017 1.35929 9.11704 1.35616C9.11078 1.35304 9.13582 1.22477 9.16712 1.06836C9.20154 0.91194 9.24223 0.70547 9.26414 0.608492C9.28292 0.508385 9.30795 0.427048 9.32047 0.427048ZM3.14543 1.11841C3.36764 1.11528 3.53352 1.13405 3.70879 1.17785C3.8465 1.21539 4.05932 1.2936 4.17825 1.35929C4.32848 1.4375 4.48184 1.55951 4.66337 1.74095C4.84802 1.92239 4.96696 2.07568 5.0452 2.22584C5.1078 2.34472 5.18917 2.55119 5.2236 2.67945C5.26115 2.80771 5.28932 2.961 5.28932 3.01731C5.28932 3.10178 5.31123 3.13306 5.4239 3.20814C5.49589 3.25506 5.64612 3.39271 5.75879 3.51472C5.89337 3.65862 6.00604 3.82129 6.09367 3.99648C6.16566 4.14038 6.2439 4.3625 6.27207 4.4845C6.30024 4.60963 6.32215 4.82862 6.32215 4.96939C6.32215 5.13207 6.29711 5.32289 6.25955 5.47931C6.222 5.61696 6.14688 5.8203 6.08742 5.93292C6.02795 6.04554 5.90902 6.22386 5.82138 6.33022C5.73688 6.43971 5.57726 6.58987 5.47085 6.66495C5.36131 6.74316 5.18291 6.84639 5.07024 6.89645C4.95757 6.94963 4.75726 7.0122 4.62581 7.04035C4.49123 7.06851 4.29405 7.0904 4.18764 7.0904C4.0781 7.08728 3.931 7.07789 3.72443 7.04348V8.87356H15.9932V9.96847H12.8634C11.142 9.96847 9.73361 9.9716 9.73361 9.97786C9.73361 9.98099 9.80872 10.2094 9.90261 10.4846C9.99651 10.7599 10.081 11.0102 10.0904 11.0415C10.1092 11.0915 10.2531 11.0947 14.929 11.0947V12.1896H10.4848L10.876 13.3158H13.8336V14.4107H12.5504C11.8431 14.4107 11.2672 14.4201 11.2672 14.4357C11.2672 14.4483 11.358 14.7267 11.4706 15.052C11.5833 15.3805 11.6709 15.6495 11.6678 15.6527C11.6615 15.6558 11.4331 15.7371 11.1577 15.831C10.66 15.9999 10.6569 15.9999 10.6225 15.9311C10.6037 15.8967 10.1342 14.539 8.55994 9.96847H7.40192L6.38787 12.9779C5.83077 14.636 5.3707 15.9936 5.3707 15.9999C5.36757 16.003 5.13909 15.928 4.86054 15.8341C4.56634 15.734 4.35039 15.6464 4.35039 15.6214C4.35039 15.6026 4.43489 15.3304 4.53818 15.0207C4.64146 14.711 4.72596 14.4483 4.72596 14.4326C4.72596 14.4201 4.15008 14.4107 2.15955 14.4107V13.3158H5.11718L5.29558 12.7777C5.39573 12.4805 5.47711 12.2271 5.47711 12.2115C5.47711 12.199 4.4881 12.1865 1.07977 12.174L1.06412 11.0947L5.86833 11.079L6.04673 10.5629C6.14375 10.2782 6.22513 10.0279 6.22513 10.006C6.22826 9.97786 5.58665 9.96847 0 9.96847V8.87356L2.61336 8.85791L2.62901 7.02784L2.52886 7.04974C2.47252 7.06538 2.27848 7.07476 2.09695 7.07476C1.81527 7.07476 1.72764 7.06225 1.48664 6.98091C1.3239 6.92773 1.11107 6.82762 0.98588 6.74316C0.866948 6.66495 0.679161 6.50541 0.572749 6.39279C0.435039 6.24575 0.331756 6.09559 0.234733 5.89225C0.147099 5.71081 0.0751146 5.50747 0.0438169 5.33854C0.00625955 5.14771 -0.00312978 4.99755 0.0125191 4.81298C0.0219084 4.6722 0.0657253 4.44696 0.109542 4.31244C0.150229 4.18105 0.237863 3.98397 0.303588 3.87447C0.369314 3.76811 0.488245 3.60544 0.56649 3.51472C0.644734 3.42399 0.782444 3.30199 0.870078 3.24255C1.01405 3.14557 1.03283 3.11742 1.04848 2.99228C1.06099 2.91408 1.09855 2.7514 1.13298 2.63253C1.16741 2.51365 1.22687 2.35098 1.26756 2.27277C1.30825 2.19456 1.40214 2.04753 1.47725 1.94429C1.5555 1.84106 1.70886 1.68464 1.8184 1.59392C1.92794 1.50632 2.12512 1.38432 2.25344 1.32175C2.38176 1.26231 2.56642 1.19036 2.66031 1.16534C2.7542 1.14031 2.97329 1.11841 3.14543 1.11841ZM10.8979 2.7733C10.9135 2.7733 11.0356 2.95162 11.4206 3.57103L10.7727 3.99335C10.4159 4.22798 10.106 4.42819 10.0873 4.4407C10.0591 4.45635 9.96208 4.33434 9.78994 4.06843C9.62093 3.81504 9.54269 3.66488 9.56147 3.64611C9.58025 3.63046 9.8807 3.43025 10.2344 3.19875C10.588 2.96413 10.8854 2.77643 10.8979 2.7733ZM15.1293 3.68365L15.5769 4.3625C15.821 4.73477 16.0119 5.05073 15.9994 5.06011C15.9869 5.07263 15.8085 5.18838 15.6019 5.31977C15.3954 5.45428 15.217 5.54813 15.2045 5.53562C15.1919 5.52311 14.9916 5.21966 14.76 4.8599C14.5253 4.50327 14.3375 4.20608 14.3438 4.19982C14.3469 4.19356 14.5253 4.07469 14.7412 3.93391L15.1293 3.68365ZM12.7695 4.28429C13.0167 4.33747 13.2296 4.38439 13.2358 4.39065C13.2452 4.40004 13.1795 4.75354 13.0887 5.17899C12.998 5.60444 12.9166 5.95795 12.9072 5.96733C12.8978 5.97359 12.6975 5.94231 12.4596 5.89225C12.2249 5.8422 12.0215 5.79215 12.009 5.78276C11.9964 5.77338 12.0559 5.42613 12.1435 5.01319C12.228 4.60025 12.3032 4.24675 12.3094 4.22798C12.3157 4.20295 12.4596 4.22172 12.7695 4.28429Z" fill="#667085"/>
<path d="M12.7127 1.22552C12.7534 1.17234 12.8661 1.091 12.96 1.04408C13.1102 0.965869 13.154 0.956484 13.3637 0.965869C13.564 0.975254 13.6235 0.994024 13.7549 1.07849C13.8394 1.13167 13.9427 1.22239 13.9803 1.2787C14.0178 1.33501 14.0742 1.43825 14.1023 1.50707C14.1368 1.59466 14.1493 1.68851 14.1399 1.8199C14.1305 1.92314 14.0992 2.05766 14.0679 2.1171C14.0397 2.17654 13.9709 2.27351 13.9146 2.32982C13.8613 2.38926 13.7612 2.46434 13.6923 2.49875C13.6204 2.53629 13.4826 2.57071 13.3637 2.57696C13.1853 2.58948 13.1384 2.58009 12.9725 2.49875C12.8598 2.44244 12.7471 2.35485 12.6939 2.2829C12.6407 2.2172 12.5813 2.1171 12.5594 2.06079C12.5375 2.00761 12.5187 1.87309 12.5187 1.76359C12.5187 1.64472 12.5406 1.52271 12.5781 1.4445C12.6094 1.37568 12.6689 1.2787 12.7127 1.22552Z" fill="#F7F7F7"/>
<path d="M2.69431 2.31418C2.74438 2.28603 2.82576 2.25474 2.8727 2.2391C2.91965 2.22659 3.0511 2.21408 3.1669 2.21408C3.31713 2.21095 3.43293 2.23285 3.55813 2.27977C3.67706 2.32357 3.79286 2.40178 3.88675 2.49875C3.97126 2.58009 4.06828 2.71461 4.10584 2.79595C4.14965 2.89918 4.18408 3.06498 4.20912 3.32151C4.23416 3.61244 4.25919 3.71881 4.30927 3.79076C4.34683 3.84707 4.47515 3.93779 4.61912 4.00974C4.76935 4.08795 4.90393 4.1818 4.96652 4.26001C5.02599 4.32883 5.1011 4.44771 5.13866 4.52592C5.17935 4.61664 5.21065 4.75116 5.22004 4.90132C5.22943 5.08589 5.22004 5.17348 5.16996 5.308C5.1324 5.40811 5.04164 5.55201 4.95401 5.64586C4.86324 5.74597 4.73492 5.8492 4.63164 5.89613C4.4908 5.96495 4.41568 5.98059 4.20912 5.98059C4.06515 5.98059 3.91179 5.96182 3.84919 5.9368C3.78973 5.91177 3.65515 5.83356 3.55187 5.76474C3.38286 5.64899 3.3453 5.63648 3.17629 5.63648C3.00728 5.63648 2.9666 5.64899 2.75377 5.78351C2.62545 5.86797 2.44705 5.94931 2.36255 5.96808C2.27492 5.98998 2.12782 5.99623 2.03392 5.98685C1.94003 5.97434 1.77728 5.92428 1.674 5.87423C1.57072 5.82418 1.43927 5.73033 1.3798 5.6615C1.32033 5.59581 1.23583 5.46442 1.19201 5.37057C1.12629 5.22979 1.11377 5.15158 1.11377 4.94824C1.11377 4.75741 1.12942 4.66356 1.18262 4.54781C1.22018 4.46648 1.31721 4.32883 1.39858 4.24124C1.48934 4.14739 1.62392 4.04728 1.7366 3.9941C1.83988 3.94717 1.95568 3.87522 1.99324 3.83455C2.03392 3.79389 2.07774 3.70942 2.09652 3.64998C2.11217 3.59054 2.12782 3.45602 2.12782 3.35279C2.12782 3.24955 2.14973 3.08375 2.17476 2.98365C2.1998 2.88667 2.25614 2.75215 2.2937 2.68645C2.33438 2.62389 2.41889 2.52378 2.48148 2.46747C2.54721 2.41429 2.6411 2.34547 2.69431 2.31418Z" fill="#F7F7F7"/>
</svg>
