<svg width="51" height="50" viewBox="0 0 51 50" fill="none" xmlns="http://www.w3.org/2000/svg">
<rect x="-0.5" y="0.5" width="49" height="49" rx="24.5" transform="matrix(-1 0 0 1 49.5 0)" fill="#F6FFFC"/>
<rect x="-0.5" y="0.5" width="49" height="49" rx="24.5" transform="matrix(-1 0 0 1 49.5 0)" stroke="#E7F5F1"/>
<path d="M35.8219 35.8839C35.7924 35.8342 35.7621 35.7848 35.7312 35.7356C33.4737 32.1469 32.1668 27.9029 32.1668 23.3333C32.1668 19.6514 29.1821 16.6667 25.5002 16.6667C21.8183 16.6667 18.8335 19.6514 18.8335 23.3333C18.8335 25.0284 18.9489 26.6976 19.1723 28.3333M22.7013 39.7394C21.6818 37.7044 20.846 35.5615 20.2155 33.3333M13.8172 35.2199C12.7422 31.4428 12.1667 27.4553 12.1667 23.3333C12.1667 15.9695 18.1362 10 25.5 10C27.9286 10 30.2055 10.6493 32.1667 11.7838M40.5 30.6069C39.4322 28.4089 38.8333 25.9411 38.8333 23.3333C38.8333 20.9048 38.184 18.6278 37.0496 16.6667M25.5002 23.3333C25.5002 29.1953 27.1815 34.6647 30.0882 39.2854" stroke="#0E9874" stroke-width="3" stroke-linecap="round" stroke-linejoin="round"/>
</svg>
