<svg width="41" height="40" viewBox="0 0 41 40" fill="none" xmlns="http://www.w3.org/2000/svg">
<path d="M14.0001 35.3684C11.6836 32.0625 10.3209 28.0406 10.3209 23.6978C10.3209 18.0739 14.8775 13.5156 20.498 13.5156C26.1186 13.5156 30.6752 18.0739 30.6752 23.6978" stroke="#0E9874" stroke-width="3" stroke-linecap="round" stroke-linejoin="round"/>
<path d="M31.2266 33.8528C31.0433 33.863 30.8634 33.88 30.6785 33.88C25.0579 33.88 20.5013 29.3217 20.5013 23.6978" stroke="#0E9874" stroke-width="3" stroke-linecap="round" stroke-linejoin="round"/>
<path d="M31.2269 33.853C31.0436 33.8632 30.8637 33.8802 30.6787 33.8802C25.0581 33.8802 20.5016 29.3219 20.5016 23.6979" stroke="#0E9874" stroke-width="3" stroke-linecap="round" stroke-linejoin="round"/>
<path d="M22.6157 36.6665C18.2916 33.9699 15.4118 29.1707 15.4118 23.6978C15.4118 20.8858 17.6909 18.6067 20.5012 18.6067C23.3115 18.6067 25.5906 20.8858 25.5906 23.6978C25.5906 26.5098 27.8697 28.7889 30.68 28.7889C33.4903 28.7889 35.7694 26.5098 35.7694 23.6978C35.7694 15.2618 28.9337 8.42444 20.5029 8.42444C12.072 8.42444 5.23633 15.2618 5.23633 23.6978C5.23633 25.5781 5.44676 27.4092 5.83368 29.1741" stroke="#0E9874" stroke-width="3" stroke-linecap="round" stroke-linejoin="round"/>
<path d="M22.6157 36.6666C18.2916 33.97 15.4118 29.1708 15.4118 23.6978C15.4118 20.8858 17.6909 18.6067 20.5012 18.6067C23.3115 18.6067 25.5906 20.8858 25.5906 23.6978C25.5906 26.5098 27.8697 28.7889 30.68 28.7889C33.4903 28.7889 35.7694 26.5098 35.7694 23.6978C35.7694 15.2619 28.9337 8.4245 20.5029 8.4245C12.072 8.4245 5.23633 15.2619 5.23633 23.6978C5.23633 25.5781 5.44676 27.4092 5.83368 29.1742" stroke="#0E9874" stroke-width="3" stroke-linecap="round" stroke-linejoin="round"/>
<path d="M34.7096 9.7719C31.2391 5.82968 26.165 3.33334 20.5003 3.33334C14.8356 3.33334 9.76145 5.82968 6.29102 9.7719" stroke="#0E9874" stroke-width="3" stroke-linecap="round" stroke-linejoin="round"/>
<path d="M34.7096 9.7719C31.2391 5.82968 26.165 3.33334 20.5003 3.33334C14.8356 3.33334 9.76145 5.82968 6.29102 9.7719" stroke="#0E9874" stroke-width="3" stroke-linecap="round" stroke-linejoin="round"/>
</svg>
