<svg width="16" height="16" viewBox="0 0 16 16" fill="none" xmlns="http://www.w3.org/2000/svg">
<g clip-path="url(#clip0_2_20368)">
<path d="M3.33325 9.52428C2.09901 10.0688 1.33325 10.8275 1.33325 11.6667C1.33325 13.3236 4.31802 14.6667 7.99992 14.6667C11.6818 14.6667 14.6666 13.3236 14.6666 11.6667C14.6666 10.8275 13.9008 10.0688 12.6666 9.52428M11.9999 5.33337C11.9999 8.04251 8.99992 9.33337 7.99992 11.3334C6.99992 9.33337 3.99992 8.04251 3.99992 5.33337C3.99992 3.12423 5.79078 1.33337 7.99992 1.33337C10.2091 1.33337 11.9999 3.12423 11.9999 5.33337ZM8.66659 5.33337C8.66659 5.70156 8.36811 6.00004 7.99992 6.00004C7.63173 6.00004 7.33325 5.70156 7.33325 5.33337C7.33325 4.96518 7.63173 4.66671 7.99992 4.66671C8.36811 4.66671 8.66659 4.96518 8.66659 5.33337Z" stroke="#667085" stroke-width="1.5" stroke-linecap="round" stroke-linejoin="round"/>
</g>
<defs>
<clipPath id="clip0_2_20368">
<rect width="16" height="16" fill="white"/>
</clipPath>
</defs>
</svg>
