<svg width="64" height="64" viewBox="0 0 64 64" fill="none" xmlns="http://www.w3.org/2000/svg">
<path d="M0.5 32C0.5 14.603 14.603 0.5 32 0.5C49.397 0.5 63.5 14.603 63.5 32C63.5 49.397 49.397 63.5 32 63.5C14.603 63.5 0.5 49.397 0.5 32Z" fill="#F6FEF9"/>
<path d="M0.5 32C0.5 14.603 14.603 0.5 32 0.5C49.397 0.5 63.5 14.603 63.5 32C63.5 49.397 49.397 63.5 32 63.5C14.603 63.5 0.5 49.397 0.5 32Z" stroke="#DCFAE6"/>
<path fill-rule="evenodd" clip-rule="evenodd" d="M44.4001 10.9498C44.4905 10.9416 44.6876 11.0156 44.8355 11.1059C44.9752 11.1963 45.4762 11.6316 45.9362 12.0752C46.3962 12.5106 47.0616 13.2581 47.4148 13.7345C47.8091 14.2603 48.2609 15.0078 48.5813 15.6649C48.8688 16.2564 49.1974 17.045 49.3124 17.431C49.4274 17.8171 49.5752 18.4825 49.6492 18.9096C49.7231 19.3368 49.7806 20.15 49.7806 20.7168C49.7806 21.2836 49.7231 22.0804 49.6492 22.4829C49.5835 22.8854 49.452 23.4851 49.3534 23.7972C49.2631 24.1094 49.0659 24.668 48.9181 25.0294C48.7702 25.3908 48.4663 25.9987 48.2445 26.3848C48.0309 26.7708 47.6284 27.3787 47.3573 27.7402C47.0863 28.1016 46.4866 28.767 45.1887 30.0402L45.1805 31.7242H45.4023C45.5337 31.7242 45.9445 31.6667 46.3305 31.6009C46.7166 31.5352 47.5791 31.4284 48.2609 31.3545C48.9345 31.2806 50.101 31.2066 50.8485 31.1738C51.8178 31.1327 52.2778 31.1491 52.4503 31.2149C52.5817 31.2724 52.7624 31.4366 52.8528 31.5845C52.9514 31.757 52.9924 31.9295 52.9596 32.0938C52.9267 32.2252 52.8117 32.4306 52.6885 32.5456C52.516 32.7181 52.3846 32.751 51.9328 32.7756C51.6288 32.7838 50.7335 32.8331 49.9449 32.8824C49.1563 32.9317 47.9898 33.0385 47.3573 33.1206C46.7248 33.211 45.8952 33.3342 45.5091 33.4081C45.123 33.482 44.4084 33.6299 43.9073 33.7449C43.4062 33.8599 42.4287 34.1146 41.7304 34.3199C41.0322 34.5253 40.0301 34.8539 39.5125 35.0428C38.995 35.2399 38.1982 35.5521 37.7464 35.7492C37.2947 35.9382 36.3171 36.3982 35.5696 36.7678C34.8221 37.1375 33.7132 37.7453 33.1053 38.1068C32.4974 38.4764 31.5363 39.0925 30.9695 39.4868C30.4027 39.8811 29.5895 40.489 29.1624 40.8257C28.7352 41.1708 27.9959 41.7868 27.5195 42.2058C27.043 42.6165 26.1559 43.4708 25.548 44.0951C24.9401 44.7276 24.1023 45.6394 23.6998 46.1241C23.289 46.6169 22.7058 47.3562 22.4019 47.7669C22.0897 48.1859 21.5722 48.9252 21.2436 49.4263C20.9151 49.9273 20.3318 50.8474 19.9458 51.4799C19.5597 52.1124 19.1408 52.712 19.0093 52.8188C18.8779 52.9174 18.689 53.0078 18.5822 52.9995C18.4836 52.9995 18.2947 52.9338 18.155 52.8517C18.0236 52.7778 17.8675 52.597 17.8182 52.4656C17.7607 52.3342 17.7443 52.1288 17.7689 52.0138C17.7936 51.8988 18.2454 51.102 18.7711 50.2477C19.305 49.3934 19.954 48.3748 20.2168 47.9887C20.644 47.3727 20.6851 47.2823 20.5536 47.2166C20.4797 47.1755 19.9868 46.9948 19.4693 46.8223C18.9518 46.6498 18.0811 46.3951 17.5389 46.2555C16.9968 46.1241 16.1096 45.9433 15.5675 45.853C15.0253 45.7626 13.9164 45.6476 13.1031 45.5983C12.2899 45.549 11.5178 45.4669 11.3863 45.4094C11.2549 45.3601 11.0988 45.204 11.0331 45.0726C10.9592 44.9247 10.9263 44.7276 10.9592 44.5797C10.9838 44.4483 11.0988 44.243 11.222 44.1279C11.4274 43.9308 11.4603 43.9226 12.5938 43.939C13.2346 43.9472 14.2203 44.0047 14.7871 44.0787C15.3539 44.1444 16.2903 44.3005 16.8818 44.4237C17.4732 44.5387 18.4261 44.7769 19.0175 44.9494C19.609 45.1219 20.4551 45.4094 21.7283 45.9187L22.139 45.4176C22.3608 45.1383 22.714 44.7276 22.9112 44.4976C23.1083 44.2758 23.708 43.6269 25.203 42.0333L24.2419 41.6061C23.7162 41.3761 22.9933 41.0722 22.6319 40.9325C22.2705 40.7929 21.5722 40.5547 21.0711 40.3986C20.5783 40.2425 19.8143 40.0207 19.3872 39.9057C18.96 39.7989 18.1304 39.61 17.5389 39.495C16.9475 39.3882 15.9946 39.2321 15.4032 39.1582C14.8117 39.0843 13.7028 38.9939 12.9224 38.9693C11.6985 38.92 11.4849 38.8871 11.2878 38.7475C11.1645 38.6571 11.0331 38.4682 10.9838 38.3368C10.9427 38.2053 10.9345 38.0082 10.9592 37.9014C10.9838 37.8028 11.0988 37.6303 11.2138 37.5153C11.4028 37.3182 11.452 37.31 12.4213 37.31C12.9799 37.31 13.9821 37.3675 14.6639 37.4332C15.3375 37.4989 16.2657 37.6057 16.7175 37.6796C17.1693 37.7535 17.8922 37.885 18.3193 37.9753C18.7465 38.0657 19.5268 38.2464 20.0443 38.3861C20.5618 38.5257 21.3422 38.7475 21.7694 38.8871C22.1965 39.0268 23.0098 39.3225 23.5765 39.5443C24.1433 39.7661 25.0387 40.1522 26.5337 40.8422L27.4538 40.0782C27.9631 39.6593 28.8091 39.0021 29.3267 38.6243C29.8442 38.2464 30.3042 37.9178 30.337 37.8932C30.3699 37.8685 29.8688 37.5564 29.2281 37.2114C28.5791 36.8664 27.5934 36.3735 27.0266 36.1189C26.4598 35.8642 25.5234 35.4699 24.9319 35.2481C24.3405 35.0181 23.3465 34.6731 22.714 34.476C22.0815 34.2788 21.0054 33.9913 20.3318 33.8353C19.65 33.671 18.5411 33.4492 17.8675 33.3342C17.1857 33.2192 16.0768 33.0713 15.4032 33.0056C14.7214 32.9399 13.5796 32.8577 12.8567 32.8331C12.0599 32.8002 11.4603 32.7345 11.337 32.6688C11.222 32.6113 11.0824 32.4635 11.0249 32.332C10.9592 32.2006 10.9345 31.9788 10.9592 31.8474C10.9838 31.7159 11.0988 31.5106 11.222 31.3956C11.4192 31.2066 11.4849 31.1902 12.2653 31.1902C12.7253 31.1902 13.6124 31.2149 15.3621 31.3134V28.6027L14.6803 27.9209C14.3107 27.543 13.8178 26.9598 13.5878 26.623C13.3496 26.2862 13.0292 25.7523 12.8731 25.4401C12.7088 25.128 12.4788 24.5858 12.3638 24.249C12.2488 23.9122 12.101 23.3372 12.0353 22.9758C11.9613 22.6143 11.912 21.9325 11.912 21.4561C11.912 20.9797 11.9613 20.2979 12.0353 19.9364C12.101 19.575 12.2406 19.0164 12.3474 18.7043C12.4542 18.3921 12.6842 17.85 12.8485 17.5132C13.021 17.1764 13.2839 16.7082 13.4317 16.4864C13.5878 16.2564 13.9328 15.8128 14.1957 15.5006C14.4667 15.1803 14.9267 14.7121 15.2307 14.4492C15.5264 14.1945 15.855 13.9563 15.9536 13.9317C16.0603 13.907 16.2411 13.907 16.3643 13.9317C16.4957 13.9563 16.8407 14.1945 17.1364 14.4492C17.4404 14.7121 17.9004 15.1803 18.1714 15.5006C18.4343 15.8128 18.7793 16.2564 18.9354 16.4864C19.0833 16.7082 19.3461 17.1764 19.5186 17.5132C19.6829 17.85 19.9129 18.3921 20.0197 18.7043C20.1265 19.0164 20.2661 19.575 20.3318 19.9364C20.4058 20.2979 20.4551 20.9797 20.4551 21.4561C20.4551 21.9325 20.4058 22.6143 20.3318 22.9758C20.2661 23.3372 20.1183 23.9122 20.0033 24.249C19.8883 24.5858 19.6583 25.128 19.494 25.4401C19.3379 25.7523 19.0175 26.2862 18.7793 26.623C18.5493 26.9598 18.0564 27.543 17.005 28.6027V31.5188L17.7607 31.6338C18.1797 31.6913 18.574 31.757 18.6232 31.7734C18.7054 31.7981 18.73 31.4366 18.73 30.1634C18.73 28.8984 18.7547 28.4712 18.845 28.2905C18.9107 28.1673 20.0526 26.9926 21.3751 25.6701C23.3876 23.6658 23.8312 23.2633 24.0694 23.2222C24.2255 23.1976 26.4845 23.1811 29.0802 23.1976C33.3435 23.2222 33.8199 23.2386 34.0089 23.3619C34.1239 23.4358 35.2739 24.594 38.9375 28.3562V30.9027C38.9375 32.3074 38.9622 33.4492 38.995 33.4492C39.0361 33.4492 39.5043 33.3013 40.0465 33.1206C40.5886 32.9317 41.4594 32.677 41.9769 32.5374C42.4944 32.3977 43.0612 32.2499 43.5376 32.1349V29.9991L42.634 29.0955C42.1001 28.5616 41.4922 27.8469 41.1472 27.3459C40.8351 26.8858 40.3915 26.1383 40.1697 25.6865C39.9479 25.2347 39.6522 24.5119 39.5208 24.0847C39.3811 23.6576 39.2168 22.9511 39.1429 22.524C39.0608 22.064 39.0115 21.2836 39.0115 20.6347C39.0115 19.8625 39.0608 19.2629 39.1758 18.6632C39.2661 18.1868 39.4304 17.5378 39.5372 17.2257C39.644 16.9135 39.8493 16.3878 39.989 16.0757C40.1286 15.7553 40.4161 15.2049 40.6215 14.8435C40.8351 14.4821 41.1801 13.9645 41.3854 13.6935C41.5908 13.4224 41.9851 12.9624 42.2562 12.6667C42.519 12.3709 43.0037 11.8945 43.3241 11.5988C43.6444 11.3113 43.9812 11.0484 44.0716 11.0156C44.1619 10.9827 44.3098 10.9498 44.4001 10.9498ZM52.2449 37.2935C52.3599 37.31 52.5406 37.3921 52.6556 37.4743C52.7706 37.5482 52.8939 37.7207 52.9349 37.8521C52.9842 38.0164 52.976 38.1725 52.8939 38.3696C52.8282 38.5257 52.7049 38.7064 52.6146 38.7639C52.4996 38.8461 51.9656 38.9036 50.8895 38.9529C50.0352 38.9939 48.8852 39.0843 48.3431 39.1582C47.8009 39.2321 47.0452 39.3471 46.6591 39.4129C46.273 39.4868 45.5009 39.6511 44.9341 39.7907C44.3673 39.9304 43.4637 40.1768 42.9215 40.3493C42.3794 40.5218 41.8619 40.6697 41.7715 40.6779C41.6812 40.6861 41.5415 40.6943 41.4594 40.6861C41.3854 40.6861 41.2047 40.5711 41.0733 40.4315C40.8926 40.2507 40.8269 40.1111 40.8269 39.8975C40.8269 39.6922 40.8926 39.5443 41.0486 39.3718C41.2212 39.1993 41.5333 39.0596 42.2644 38.8296C42.8065 38.6653 43.6526 38.4189 44.1537 38.2875C44.6548 38.1561 45.6487 37.9425 46.3716 37.811C47.0945 37.6796 48.072 37.5235 48.5484 37.4743C49.0249 37.4168 50.0024 37.3428 50.7253 37.3182C51.4481 37.2853 52.1299 37.2771 52.2449 37.2935ZM38.0586 40.7847C38.2065 40.8175 38.3707 40.8915 38.4282 40.949C38.4857 41.0065 38.5679 41.1625 38.6007 41.294C38.6336 41.4336 38.65 41.6143 38.6336 41.7047C38.6172 41.795 38.5104 41.9676 38.3954 42.099C38.2311 42.2633 38.0997 42.3208 37.8615 42.3208C37.615 42.3208 37.4836 42.2633 37.2947 42.0743C37.1139 41.8936 37.0482 41.754 37.0482 41.524C37.04 41.3022 37.1057 41.1461 37.2454 40.99C37.3604 40.8668 37.5329 40.76 37.6232 40.7436C37.7136 40.7272 37.9107 40.7436 38.0586 40.7847ZM34.4607 42.7726C34.5921 42.7972 34.8057 42.9204 34.9289 43.0601C35.0603 43.1915 35.1589 43.3969 35.1589 43.5119C35.1589 43.6269 35.1178 43.8076 35.0768 43.9226C35.0275 44.0376 34.6742 44.358 34.2717 44.6372C33.8774 44.9165 33.3024 45.3519 32.9821 45.5983C32.6617 45.853 31.9635 46.4444 31.4295 46.9209C30.8874 47.3973 30.0824 48.1694 29.647 48.6459C29.2034 49.1223 28.5956 49.8041 28.2998 50.1656C27.9959 50.527 27.4291 51.2581 27.0348 51.8002C26.6487 52.3342 26.2791 52.8106 26.2134 52.8681C26.1477 52.9174 25.9341 52.9585 25.7369 52.9585C25.4412 52.9585 25.3344 52.9174 25.1701 52.7367C25.0387 52.5833 24.973 52.4054 24.973 52.2027C24.9648 51.9481 25.0716 51.7427 25.5152 51.1102C25.8191 50.6831 26.2462 50.0916 26.4762 49.7959C26.7062 49.5002 27.2402 48.8759 27.6509 48.3995C28.0698 47.923 28.8256 47.1262 29.3431 46.6251C29.8524 46.1241 30.526 45.4998 30.8463 45.2287C31.1585 44.9576 31.676 44.5387 31.9963 44.284C32.3167 44.0376 32.826 43.6515 33.1464 43.4215C33.4667 43.1915 33.8364 42.9451 33.9678 42.8711C34.1157 42.789 34.3128 42.7479 34.4607 42.7726ZM51.5221 43.8979C51.9656 43.8897 52.4092 43.9226 52.5078 43.9637C52.6146 44.0129 52.7624 44.169 52.8528 44.3169C52.9514 44.4894 52.9924 44.6619 52.9596 44.8262C52.9267 44.9658 52.8117 45.163 52.6885 45.278C52.4914 45.4751 52.4092 45.4833 51.2346 45.549C50.5445 45.5819 49.5588 45.664 49.0413 45.738C48.5238 45.8037 47.6695 45.9516 47.152 46.0666C46.6345 46.1816 45.8212 46.3869 45.3448 46.5183C44.8684 46.658 44.0962 46.9209 43.6198 47.1016C43.1433 47.2823 42.2972 47.6519 41.7304 47.9148C41.1637 48.1859 40.4079 48.5802 40.0465 48.7855C39.6851 48.9909 39.0525 49.3852 38.65 49.6563C38.2475 49.9273 37.5411 50.4366 37.0893 50.7899C36.6375 51.1431 35.9311 51.7427 35.5285 52.1206C35.126 52.4985 34.6989 52.8599 34.5839 52.9092C34.4689 52.9749 34.2717 52.9995 34.1321 52.9667C34.0007 52.942 33.7953 52.827 33.6803 52.7038C33.5324 52.5477 33.4749 52.3999 33.4749 52.1617C33.4749 51.8495 33.5242 51.7838 34.3457 50.9952C34.8221 50.5434 35.5943 49.8616 36.0707 49.5002C36.5389 49.1305 37.3111 48.572 37.7875 48.2598C38.264 47.9477 38.9868 47.4959 39.3893 47.2659C39.7918 47.0359 40.5558 46.6498 41.0733 46.4033C41.5908 46.1569 42.519 45.7708 43.1269 45.5408C43.7348 45.3108 44.6384 45.0069 45.1394 44.8672C45.6405 44.7276 46.577 44.514 47.2341 44.3826C47.8913 44.2512 48.8113 44.1033 49.2877 44.054C49.7642 44.0047 50.2817 43.9472 50.4377 43.9308C50.5938 43.9226 51.0867 43.8979 51.5221 43.8979Z" fill="#067647"/>
<path fill-rule="evenodd" clip-rule="evenodd" d="M44.3999 12.8066L45.131 13.5788C45.5253 14.0059 46.051 14.6302 46.2892 14.967C46.5274 15.3038 46.8478 15.846 47.0121 16.1581C47.1682 16.4703 47.3653 16.881 47.4392 17.0617C47.5132 17.2424 47.6528 17.6285 47.7432 17.9242C47.8335 18.22 47.9567 18.7539 48.0225 19.1153C48.0882 19.4768 48.1375 20.1832 48.1375 20.6761C48.1375 21.1772 48.08 21.9165 48.0142 22.319C47.9403 22.7215 47.7925 23.3375 47.6775 23.6743C47.5625 24.0111 47.3242 24.5861 47.1517 24.9476C46.9792 25.309 46.6589 25.8676 46.4453 26.1797C46.2399 26.4919 45.9031 26.9519 45.706 27.1901C45.5088 27.4201 45.3117 27.6173 45.2624 27.6173C45.2131 27.6173 45.1803 26.4837 45.1803 21.1279L44.9749 20.9225C44.8599 20.8075 44.6874 20.6925 44.5806 20.6679C44.482 20.6432 44.2849 20.6514 44.1535 20.6925C44.022 20.7418 43.8331 20.8732 43.7427 20.9964C43.5867 21.21 43.5784 21.3661 43.5374 27.6994L43.1595 27.2723C42.9542 27.034 42.5927 26.5412 42.3463 26.1797C42.1081 25.8183 41.7959 25.2844 41.6481 24.9886C41.5002 24.6929 41.2702 24.1426 41.1388 23.7565C41.0155 23.3704 40.8513 22.7461 40.7773 22.36C40.7034 21.9657 40.6459 21.2347 40.6459 20.6761C40.6459 20.1339 40.7034 19.3946 40.7773 19.0332C40.843 18.6717 40.9827 18.1214 41.073 17.801C41.1716 17.4889 41.3934 16.9303 41.5659 16.5689C41.7384 16.2074 42.0999 15.5831 42.3627 15.1724C42.6338 14.7699 43.2006 14.0717 43.6277 13.6199L44.3999 12.8066ZM16.1751 15.8624C16.1997 15.8624 16.4462 16.0924 16.7255 16.3799C16.9965 16.6674 17.4155 17.1931 17.6455 17.5546C17.8837 17.916 18.1794 18.491 18.3108 18.8278C18.4423 19.1646 18.6066 19.7314 18.6805 20.0764C18.7462 20.4296 18.8119 21.0457 18.8119 21.4564C18.8119 21.8589 18.7544 22.4586 18.6969 22.7872C18.6312 23.1158 18.4669 23.6826 18.3273 24.044C18.1876 24.4054 17.8426 25.0544 17.0458 26.2619L16.9637 20.4543L16.6762 20.2078C16.4297 19.9943 16.3394 19.9614 16.1012 20.0025C15.9369 20.0353 15.7151 20.1503 15.4029 20.4707L15.3208 26.2619L14.8033 25.4815C14.5158 25.0544 14.1708 24.4054 14.0311 24.044C13.8915 23.6826 13.7272 23.1158 13.6697 22.7872C13.604 22.4586 13.5547 21.8589 13.5547 21.4564C13.5547 21.0457 13.6122 20.4296 13.6779 20.0764C13.7518 19.7314 13.9161 19.1646 14.0476 18.8278C14.179 18.491 14.4829 17.916 14.7129 17.5546C14.9429 17.1931 15.3536 16.6674 15.6329 16.3799C15.904 16.1006 16.1422 15.8706 16.1751 15.8624ZM33.1461 24.8244L34.6001 26.2783C35.4051 27.0833 36.0376 27.7651 36.0047 27.798C35.9719 27.8308 34.4111 27.8637 29.121 27.8637L27.6589 26.4015C26.8539 25.6047 26.2213 24.9147 26.2542 24.8819C26.2871 24.849 27.8478 24.8244 33.1461 24.8244ZM24.1431 25.2351C24.1677 25.2351 24.751 25.7937 25.441 26.4837C26.1392 27.1737 26.6731 27.7651 26.6403 27.798C26.6074 27.8308 25.4903 27.8637 24.1513 27.8637C22.8206 27.8637 21.6952 27.8391 21.6623 27.8062C21.6213 27.7651 22.1634 27.1737 22.8534 26.4837C23.5434 25.7937 24.1267 25.2351 24.1431 25.2351ZM20.3727 29.5066H27.9299V32.0941C27.9299 33.5152 27.9053 34.6817 27.8889 34.6817C27.8642 34.6817 27.6014 34.5667 26.7799 34.1888V32.7266C26.7799 31.4123 26.7635 31.248 26.6156 31.0016C26.5006 30.8209 26.3528 30.7141 26.1392 30.6566C25.9667 30.6073 25.0713 30.5745 24.1513 30.5745C23.2231 30.5745 22.3277 30.6073 22.1552 30.6566C21.9498 30.7141 21.7938 30.8209 21.687 31.0016C21.5638 31.207 21.5227 31.4123 21.5227 32.4227L21.2516 32.357C21.1038 32.3241 20.8491 32.2584 20.3727 32.1352V29.5066ZM29.5728 29.5066H37.278L37.2533 34.1231L35.9801 34.7063C35.2737 35.0349 34.2222 35.5606 33.639 35.881C33.0475 36.2014 32.4232 36.5546 31.914 36.8339L31.2979 36.4724C30.9529 36.2671 30.4271 35.9631 29.5728 35.5031V29.5066ZM23.1491 32.2995H25.137V32.9156C25.137 33.4577 25.1206 33.5234 24.9892 33.4906C24.907 33.4659 24.4799 33.3263 23.2066 32.8992L23.1491 32.2995Z" fill="#DCFAE6"/>
<path d="M43.753 17.8589C43.827 17.7522 43.9666 17.6371 44.0652 17.5961C44.1555 17.555 44.3034 17.5221 44.3855 17.5221C44.4595 17.5139 44.6402 17.5714 44.7716 17.6371C44.903 17.7029 45.0591 17.8343 45.1002 17.9247C45.1495 18.015 45.1823 18.1957 45.1823 18.3354C45.1823 18.475 45.1495 18.6557 45.1002 18.7461C45.0591 18.8365 44.8948 18.9679 44.7552 19.0418C44.5827 19.124 44.3855 19.1568 44.2212 19.124C44.057 19.0993 43.8845 18.9843 43.7859 18.8529C43.6873 18.7215 43.6134 18.4997 43.6216 18.3354C43.6216 18.1793 43.6791 17.9657 43.753 17.8589Z" fill="#067647"/>
</svg>
