<svg width="20" height="20" viewBox="0 0 20 20" fill="none" xmlns="http://www.w3.org/2000/svg">
<path d="M2 4C2 1.79086 3.79086 0 6 0H12L18 6V16C18 18.2091 16.2091 20 14 20H6C3.79086 20 2 18.2091 2 16V4Z" fill="#D92D20"/>
<path opacity="0.3" d="M12 0L18 6H16C13.7909 6 12 4.20914 12 2V0Z" fill="white"/>
<path d="M12.5373 12.5974C12.0382 12.5974 11.4137 12.6844 11.2094 12.7151C10.3637 11.832 10.1231 11.33 10.069 11.1962C10.1423 11.0077 10.3975 10.2919 10.4338 9.3725C10.4517 8.91219 10.3544 8.56825 10.1447 8.35021C9.93533 8.13253 9.68191 8.1156 9.60924 8.1156C9.35443 8.1156 8.92697 8.24445 8.92697 9.10732C8.92697 9.85599 9.27603 10.6504 9.37252 10.8557C8.86415 12.3359 8.31837 13.3492 8.20248 13.5576C6.15974 14.3267 6 15.0703 6 15.2811C6 15.6598 6.26973 15.8859 6.72152 15.8859C7.8192 15.8859 8.8209 14.043 8.98653 13.723C9.76614 13.4124 10.8096 13.22 11.0749 13.1741C11.8357 13.8989 12.7157 14.0923 13.0811 14.0923C13.3561 14.0923 14 14.0923 14 13.4303C14 12.8155 13.2121 12.5974 12.5373 12.5974ZM12.4844 13.032C13.0773 13.032 13.234 13.2281 13.234 13.3317C13.234 13.3968 13.2093 13.609 12.8915 13.609C12.6065 13.609 12.1145 13.4443 11.6303 13.087C11.8322 13.0605 12.131 13.032 12.4844 13.032ZM9.57812 8.53687C9.63218 8.53687 9.66777 8.55423 9.69711 8.59493C9.86764 8.83155 9.73014 9.60471 9.56279 10.2097C9.40124 9.69096 9.28 8.89493 9.45058 8.61488C9.48392 8.56022 9.52204 8.53687 9.57812 8.53687ZM9.29017 13.1679C9.50483 12.7343 9.74542 12.1023 9.87646 11.7448C10.1387 12.1838 10.4914 12.5913 10.6954 12.8122C10.0603 12.9462 9.57969 13.0799 9.29017 13.1679ZM6.4264 15.3389C6.41226 15.3222 6.41017 15.2868 6.42083 15.2443C6.44317 15.1554 6.61396 14.7144 7.84924 14.1619C7.67236 14.4405 7.39585 14.8386 7.09208 15.136C6.87825 15.3361 6.71174 15.4376 6.59719 15.4376C6.55621 15.4376 6.49974 15.4264 6.4264 15.3389Z" fill="white"/>
</svg>
